<?xml version="1.0" encoding="utf-8" standalone="no"?>
<!DOCTYPE svg PUBLIC "-//W3C//DTD SVG 1.1//EN"
  "http://www.w3.org/Graphics/SVG/1.1/DTD/svg11.dtd">
<svg xmlns:xlink="http://www.w3.org/1999/xlink" width="221.547656pt" height="145.8pt" viewBox="0 0 221.547656 145.8" xmlns="http://www.w3.org/2000/svg" version="1.1">
 <metadata>
  <rdf:RDF xmlns:dc="http://purl.org/dc/elements/1.1/" xmlns:cc="http://creativecommons.org/ns#" xmlns:rdf="http://www.w3.org/1999/02/22-rdf-syntax-ns#">
   <cc:Work>
    <dc:type rdf:resource="http://purl.org/dc/dcmitype/StillImage"/>
    <dc:date>2023-11-04T15:27:04.637543</dc:date>
    <dc:format>image/svg+xml</dc:format>
    <dc:creator>
     <cc:Agent>
      <dc:title>Matplotlib v3.8.1, https://matplotlib.org/</dc:title>
     </cc:Agent>
    </dc:creator>
   </cc:Work>
  </rdf:RDF>
 </metadata>
 <defs>
  <style type="text/css">*{stroke-linejoin: round; stroke-linecap: butt}</style>
 </defs>
 <g id="figure_1">
  <g id="patch_1">
   <path d="M 0 145.8 
L 221.547656 145.8 
L 221.547656 0 
L 0 0 
L 0 145.8 
z
" style="fill: none"/>
  </g>
  <g id="axes_1">
   <g id="patch_2">
    <path d="M 117.65 45.9 
C 122.423656 45.9 127.002438 44.003406 130.377922 40.627922 
C 133.753406 37.252438 135.65 32.673656 135.65 27.9 
C 135.65 23.126344 133.753406 18.547562 130.377922 15.172078 
C 127.002438 11.796594 122.423656 9.9 117.65 9.9 
C 112.876344 9.9 108.297562 11.796594 104.922078 15.172078 
C 101.546594 18.547562 99.65 23.126344 99.65 27.9 
C 99.65 32.673656 101.546594 37.252438 104.922078 40.627922 
C 108.297562 44.003406 112.876344 45.9 117.65 45.9 
L 117.65 45.9 
z
" clip-path="url(#pcd332c4d80)" style="fill: none; stroke: #000000; stroke-width: 2; stroke-linejoin: miter"/>
   </g>
   <g id="line2d_1">
    <path d="M 45.65 27.9 
L 99.65 27.9 
L 99.65 27.9 
M 135.65 27.9 
L 135.65 27.9 
L 189.65 27.9 
" clip-path="url(#pcd332c4d80)" style="fill: none; stroke: #000000; stroke-width: 2; stroke-linecap: round"/>
   </g>
   <g id="line2d_2">
    <path d="M 189.65 27.9 
L 189.65 63.9 
L 198.65 63.9 
L 198.65 99.9 
L 180.65 99.9 
L 180.65 63.9 
L 189.65 63.9 
M 189.65 99.9 
L 189.65 135.9 
" clip-path="url(#pcd332c4d80)" style="fill: none; stroke: #000000; stroke-width: 2; stroke-linecap: round"/>
   </g>
   <g id="line2d_3">
    <path d="M 189.65 135.9 
L 117.65 135.9 
L 45.65 135.9 
" clip-path="url(#pcd332c4d80)" style="fill: none; stroke: #000000; stroke-width: 2; stroke-linecap: round"/>
   </g>
   <g id="line2d_4">
    <path d="M 45.65 135.9 
L 45.65 85.275 
M 45.65 78.525 
L 45.65 27.9 
" clip-path="url(#pcd332c4d80)" style="fill: none; stroke: #000000; stroke-width: 2; stroke-linecap: round"/>
   </g>
   <g id="line2d_5">
    <path d="M 59.15 78.525 
L 32.15 78.525 
" clip-path="url(#pcd332c4d80)" style="fill: none; stroke: #000000; stroke-width: 2; stroke-linecap: round"/>
   </g>
   <g id="line2d_6">
    <path d="M 52.4 85.275 
L 38.9 85.275 
" clip-path="url(#pcd332c4d80)" style="fill: none; stroke: #000000; stroke-width: 2; stroke-linecap: round"/>
   </g>
   <g id="line2d_7">
    <path d="M 20.45 45.9 
L 20.45 107.1 
" clip-path="url(#pcd332c4d80)" style="fill: none; stroke: #000000; stroke-width: 2; stroke-linecap: round"/>
   </g>
   <g id="patch_3">
    <path d="M 24.05 107.1 
L 20.45 117.9 
L 16.85 107.1 
z
" clip-path="url(#pcd332c4d80)"/>
   </g>
   <g id="line2d_8">
    <path d="M 171.65 45.9 
L 171.65 107.1 
" clip-path="url(#pcd332c4d80)" style="fill: none; stroke: #000000; stroke-width: 2; stroke-linecap: round"/>
   </g>
   <g id="patch_4">
    <path d="M 175.25 107.1 
L 171.65 117.9 
L 168.05 107.1 
z
" clip-path="url(#pcd332c4d80)"/>
   </g>
   <g id="text_1">
    <!-- A -->
    <g transform="translate(113.374609 31.349219) scale(0.125 -0.125)">
     <defs>
      <path id="DejaVuSans-41" d="M 2188 4044 
L 1331 1722 
L 3047 1722 
L 2188 4044 
z
M 1831 4666 
L 2547 4666 
L 4325 0 
L 3669 0 
L 3244 1197 
L 1141 1197 
L 716 0 
L 50 0 
L 1831 4666 
z
" transform="scale(0.015625)"/>
     </defs>
     <use xlink:href="#DejaVuSans-41"/>
    </g>
   </g>
   <g id="text_2">
    <!-- $R = 1 \/ \mathrm{MΩ}$ -->
    <g transform="translate(215.348047 109.0875) rotate(-90) scale(0.125 -0.125)">
     <defs>
      <path id="DejaVuSans-Oblique-52" d="M 1613 4147 
L 1294 2491 
L 2106 2491 
Q 2584 2491 2879 2755 
Q 3175 3019 3175 3444 
Q 3175 3784 2976 3965 
Q 2778 4147 2406 4147 
L 1613 4147 
z
M 2772 2241 
Q 2972 2194 3105 2009 
Q 3238 1825 3413 1275 
L 3809 0 
L 3144 0 
L 2778 1197 
Q 2638 1659 2453 1815 
Q 2269 1972 1888 1972 
L 1191 1972 
L 806 0 
L 172 0 
L 1081 4666 
L 2503 4666 
Q 3150 4666 3495 4373 
Q 3841 4081 3841 3531 
Q 3841 3044 3547 2687 
Q 3253 2331 2772 2241 
z
" transform="scale(0.015625)"/>
      <path id="DejaVuSans-3d" d="M 678 2906 
L 4684 2906 
L 4684 2381 
L 678 2381 
L 678 2906 
z
M 678 1631 
L 4684 1631 
L 4684 1100 
L 678 1100 
L 678 1631 
z
" transform="scale(0.015625)"/>
      <path id="DejaVuSans-31" d="M 794 531 
L 1825 531 
L 1825 4091 
L 703 3866 
L 703 4441 
L 1819 4666 
L 2450 4666 
L 2450 531 
L 3481 531 
L 3481 0 
L 794 0 
L 794 531 
z
" transform="scale(0.015625)"/>
      <path id="DejaVuSans-4d" d="M 628 4666 
L 1569 4666 
L 2759 1491 
L 3956 4666 
L 4897 4666 
L 4897 0 
L 4281 0 
L 4281 4097 
L 3078 897 
L 2444 897 
L 1241 4097 
L 1241 0 
L 628 0 
L 628 4666 
z
" transform="scale(0.015625)"/>
      <path id="DejaVuSans-3a9" d="M 4647 556 
L 4647 0 
L 2772 0 
L 2772 556 
Q 3325 859 3634 1378 
Q 3944 1897 3944 2528 
Q 3944 3278 3531 3731 
Q 3119 4184 2444 4184 
Q 1769 4184 1355 3729 
Q 941 3275 941 2528 
Q 941 1897 1250 1378 
Q 1563 859 2119 556 
L 2119 0 
L 244 0 
L 244 556 
L 1241 556 
Q 747 991 519 1456 
Q 294 1922 294 2497 
Q 294 3491 894 4106 
Q 1491 4722 2444 4722 
Q 3391 4722 3994 4106 
Q 4594 3494 4594 2528 
Q 4594 1922 4372 1459 
Q 4150 997 3647 556 
L 4647 556 
z
" transform="scale(0.015625)"/>
     </defs>
     <use xlink:href="#DejaVuSans-Oblique-52" transform="translate(0 0.21875)"/>
     <use xlink:href="#DejaVuSans-3d" transform="translate(88.964844 0.21875)"/>
     <use xlink:href="#DejaVuSans-31" transform="translate(192.236328 0.21875)"/>
     <use xlink:href="#DejaVuSans-4d" transform="translate(272.095051 0.21875)"/>
     <use xlink:href="#DejaVuSans-3a9" transform="translate(358.374348 0.21875)"/>
    </g>
   </g>
   <g id="text_3">
    <!-- $U_q = 9 \/ \mathrm{V}$ -->
    <g transform="translate(12.975 106.4) rotate(-90) scale(0.125 -0.125)">
     <defs>
      <path id="DejaVuSans-Oblique-55" d="M 991 4666 
L 1625 4666 
L 1075 1831 
Q 1041 1641 1027 1517 
Q 1013 1394 1013 1300 
Q 1013 869 1253 645 
Q 1494 422 1959 422 
Q 2563 422 2898 753 
Q 3234 1084 3378 1831 
L 3928 4666 
L 4563 4666 
L 4000 1753 
Q 3816 809 3300 359 
Q 2784 -91 1888 -91 
Q 1188 -91 780 261 
Q 372 613 372 1216 
Q 372 1325 387 1461 
Q 403 1597 434 1753 
L 991 4666 
z
" transform="scale(0.015625)"/>
      <path id="DejaVuSans-Oblique-71" d="M 2669 525 
Q 2438 222 2123 65 
Q 1809 -91 1428 -91 
Q 897 -91 595 267 
Q 294 625 294 1253 
Q 294 1759 480 2231 
Q 666 2703 1013 3078 
Q 1238 3322 1530 3453 
Q 1822 3584 2144 3584 
Q 2531 3584 2781 3431 
Q 3031 3278 3144 2969 
L 3244 3494 
L 3822 3494 
L 2888 -1319 
L 2309 -1319 
L 2669 525 
z
M 891 1338 
Q 891 875 1084 633 
Q 1278 391 1644 391 
Q 2188 391 2572 911 
Q 2956 1431 2956 2175 
Q 2956 2625 2757 2864 
Q 2559 3103 2188 3103 
Q 1916 3103 1684 2976 
Q 1453 2850 1281 2606 
Q 1100 2350 995 2006 
Q 891 1663 891 1338 
z
" transform="scale(0.015625)"/>
      <path id="DejaVuSans-39" d="M 703 97 
L 703 672 
Q 941 559 1184 500 
Q 1428 441 1663 441 
Q 2288 441 2617 861 
Q 2947 1281 2994 2138 
Q 2813 1869 2534 1725 
Q 2256 1581 1919 1581 
Q 1219 1581 811 2004 
Q 403 2428 403 3163 
Q 403 3881 828 4315 
Q 1253 4750 1959 4750 
Q 2769 4750 3195 4129 
Q 3622 3509 3622 2328 
Q 3622 1225 3098 567 
Q 2575 -91 1691 -91 
Q 1453 -91 1209 -44 
Q 966 3 703 97 
z
M 1959 2075 
Q 2384 2075 2632 2365 
Q 2881 2656 2881 3163 
Q 2881 3666 2632 3958 
Q 2384 4250 1959 4250 
Q 1534 4250 1286 3958 
Q 1038 3666 1038 3163 
Q 1038 2656 1286 2365 
Q 1534 2075 1959 2075 
z
" transform="scale(0.015625)"/>
      <path id="DejaVuSans-56" d="M 1831 0 
L 50 4666 
L 709 4666 
L 2188 738 
L 3669 4666 
L 4325 4666 
L 2547 0 
L 1831 0 
z
" transform="scale(0.015625)"/>
     </defs>
     <use xlink:href="#DejaVuSans-Oblique-55" transform="translate(0 0.78125)"/>
     <use xlink:href="#DejaVuSans-Oblique-71" transform="translate(73.193359 -15.625) scale(0.7)"/>
     <use xlink:href="#DejaVuSans-3d" transform="translate(139.84375 0.78125)"/>
     <use xlink:href="#DejaVuSans-39" transform="translate(243.115234 0.78125)"/>
     <use xlink:href="#DejaVuSans-56" transform="translate(322.973958 0.78125)"/>
    </g>
   </g>
   <g id="text_4">
    <!-- $U_R$ -->
    <g transform="translate(165.450391 89.7125) rotate(-90) scale(0.125 -0.125)">
     <use xlink:href="#DejaVuSans-Oblique-55" transform="translate(0 0.09375)"/>
     <use xlink:href="#DejaVuSans-Oblique-52" transform="translate(73.193359 -16.3125) scale(0.7)"/>
    </g>
   </g>
   <g id="line2d_9">
    <path d="M 78.05 27.9 
L 78.05 27.9 
" clip-path="url(#pcd332c4d80)" style="fill: none; stroke: #000000; stroke-width: 2; stroke-linecap: round"/>
   </g>
   <g id="patch_5">
    <path d="M 78.05 22.5 
L 88.85 27.9 
L 78.05 33.3 
z
" clip-path="url(#pcd332c4d80)"/>
   </g>
   <g id="text_5">
    <!-- $I$ -->
    <g transform="translate(81.575 14.500391) scale(0.125 -0.125)">
     <defs>
      <path id="DejaVuSans-Oblique-49" d="M 1081 4666 
L 1716 4666 
L 806 0 
L 172 0 
L 1081 4666 
z
" transform="scale(0.015625)"/>
     </defs>
     <use xlink:href="#DejaVuSans-Oblique-49" transform="translate(0 0.09375)"/>
    </g>
   </g>
  </g>
 </g>
 <defs>
  <clipPath id="pcd332c4d80">
   <rect x="7.76" y="3.6" width="199.98" height="138.6"/>
  </clipPath>
 </defs>
</svg>
