<?xml version="1.0" encoding="utf-8" standalone="no"?>
<!DOCTYPE svg PUBLIC "-//W3C//DTD SVG 1.1//EN"
  "http://www.w3.org/Graphics/SVG/1.1/DTD/svg11.dtd">
<svg xmlns:xlink="http://www.w3.org/1999/xlink" width="338.421pt" height="283.501656pt" viewBox="0 0 338.421 283.501656" xmlns="http://www.w3.org/2000/svg" version="1.1">
 <metadata>
  <rdf:RDF xmlns:dc="http://purl.org/dc/elements/1.1/" xmlns:cc="http://creativecommons.org/ns#" xmlns:rdf="http://www.w3.org/1999/02/22-rdf-syntax-ns#">
   <cc:Work>
    <dc:type rdf:resource="http://purl.org/dc/dcmitype/StillImage"/>
    <dc:date>2023-11-05T14:00:18.656838</dc:date>
    <dc:format>image/svg+xml</dc:format>
    <dc:creator>
     <cc:Agent>
      <dc:title>Matplotlib v3.8.1, https://matplotlib.org/</dc:title>
     </cc:Agent>
    </dc:creator>
   </cc:Work>
  </rdf:RDF>
 </metadata>
 <defs>
  <style type="text/css">*{stroke-linejoin: round; stroke-linecap: butt}</style>
 </defs>
 <g id="figure_1">
  <g id="patch_1">
   <path d="M 0 283.501656 
L 338.421 283.501656 
L 338.421 0 
L 0 0 
L 0 283.501656 
z
" style="fill: none"/>
  </g>
  <g id="axes_1">
   <g id="patch_2">
    <path d="M 164.4555 182.197656 
L 155.4555 194.797656 
L 146.4555 182.197656 
L 164.4555 182.197656 
z
" clip-path="url(#p51ba74fd91)" style="fill: none; stroke: #000000; stroke-width: 2; stroke-linecap: round"/>
   </g>
   <g id="patch_3">
    <path d="M 283.2555 262.297656 
C 288.506521 262.297656 293.543181 260.211403 297.256214 256.498371 
C 300.969247 252.785338 303.0555 247.748678 303.0555 242.497656 
C 303.0555 237.246635 300.969247 232.209975 297.256214 228.496942 
C 293.543181 224.783909 288.506521 222.697656 283.2555 222.697656 
C 278.004479 222.697656 272.967819 224.783909 269.254786 228.496942 
C 265.541753 232.209975 263.4555 237.246635 263.4555 242.497656 
C 263.4555 247.748678 265.541753 252.785338 269.254786 256.498371 
C 272.967819 260.211403 278.004479 262.297656 283.2555 262.297656 
L 283.2555 262.297656 
z
" clip-path="url(#p51ba74fd91)" style="fill: none; stroke: #000000; stroke-width: 2; stroke-linejoin: miter"/>
   </g>
   <g id="patch_4">
    <path d="M 281.5155 169.657656 
L 290.5155 182.257656 
L 299.5155 169.657656 
L 281.5155 169.657656 
z
" clip-path="url(#p51ba74fd91)" style="fill: none; stroke: #000000; stroke-width: 2; stroke-linecap: round"/>
   </g>
   <g id="line2d_1">
    <path d="M 47.4555 134.497656 
L 47.4555 83.872656 
M 47.4555 77.122656 
L 47.4555 26.497656 
" clip-path="url(#p51ba74fd91)" style="fill: none; stroke: #000000; stroke-width: 2; stroke-linecap: round"/>
   </g>
   <g id="line2d_2">
    <path d="M 60.9555 77.122656 
L 33.9555 77.122656 
" clip-path="url(#p51ba74fd91)" style="fill: none; stroke: #000000; stroke-width: 2; stroke-linecap: round"/>
   </g>
   <g id="line2d_3">
    <path d="M 54.2055 83.872656 
L 40.7055 83.872656 
" clip-path="url(#p51ba74fd91)" style="fill: none; stroke: #000000; stroke-width: 2; stroke-linecap: round"/>
   </g>
   <g id="line2d_4">
    <path d="M 47.4555 26.497656 
L 101.4555 26.497656 
L 155.4555 26.497656 
" clip-path="url(#p51ba74fd91)" style="fill: none; stroke: #000000; stroke-width: 2; stroke-linecap: round"/>
   </g>
   <g id="line2d_5">
    <path d="M 155.4555 26.497656 
L 155.4555 62.497656 
L 164.4555 62.497656 
L 164.4555 98.497656 
L 146.4555 98.497656 
L 146.4555 62.497656 
L 155.4555 62.497656 
M 155.4555 98.497656 
L 155.4555 134.497656 
" clip-path="url(#p51ba74fd91)" style="fill: none; stroke: #000000; stroke-width: 2; stroke-linecap: round"/>
   </g>
   <g id="line2d_6">
    <path d="M 155.4555 134.497656 
L 155.4555 182.197656 
M 164.4555 194.797656 
L 146.4555 194.797656 
M 155.4555 194.797656 
L 155.4555 242.497656 
" clip-path="url(#p51ba74fd91)" style="fill: none; stroke: #000000; stroke-width: 2; stroke-linecap: round"/>
   </g>
   <g id="line2d_7">
    <path d="M 168.9555 191.197656 
L 178.454149 196.625456 
" clip-path="url(#p51ba74fd91)" style="fill: none; stroke: #000000; stroke-width: 2; stroke-linecap: round"/>
   </g>
   <g id="patch_5">
    <path d="M 179.88303 194.124916 
L 184.7055 200.197656 
L 177.025269 199.125996 
z
" clip-path="url(#p51ba74fd91)"/>
   </g>
   <g id="line2d_8">
    <path d="M 168.9555 183.097656 
L 178.454149 188.525456 
" clip-path="url(#p51ba74fd91)" style="fill: none; stroke: #000000; stroke-width: 2; stroke-linecap: round"/>
   </g>
   <g id="patch_6">
    <path d="M 179.88303 186.024916 
L 184.7055 192.097656 
L 177.025269 191.025996 
z
" clip-path="url(#p51ba74fd91)"/>
   </g>
   <g id="line2d_9">
    <path d="M 155.4555 242.497656 
L 209.4555 242.497656 
L 263.4555 242.497656 
" clip-path="url(#p51ba74fd91)" style="fill: none; stroke: #000000; stroke-width: 2; stroke-linecap: round"/>
   </g>
   <g id="line2d_10">
    <path d="M 263.4555 242.497656 
L 276.6555 242.497656 
" clip-path="url(#p51ba74fd91)" style="fill: none; stroke: #000000; stroke-width: 2; stroke-linecap: round"/>
   </g>
   <g id="line2d_11">
    <path d="M 276.6555 229.297656 
L 276.6555 255.697656 
" clip-path="url(#p51ba74fd91)" style="fill: none; stroke: #000000; stroke-width: 2; stroke-linecap: round"/>
   </g>
   <g id="line2d_12">
    <path d="M 276.6555 235.897656 
L 290.5155 224.017656 
L 290.5155 217.417656 
" clip-path="url(#p51ba74fd91)" style="fill: none; stroke: #000000; stroke-width: 2; stroke-linecap: round"/>
   </g>
   <g id="line2d_13">
    <path d="M 276.6555 249.097656 
L 290.5155 260.977656 
L 290.5155 267.577656 
" clip-path="url(#p51ba74fd91)" style="fill: none; stroke: #000000; stroke-width: 2; stroke-linecap: round"/>
   </g>
   <g id="line2d_14">
    <path d="M 276.6555 249.097656 
L 283.682191 255.120534 
" clip-path="url(#p51ba74fd91)" style="fill: none; stroke: #000000; stroke-width: 2; stroke-linecap: round"/>
   </g>
   <g id="patch_7">
    <path d="M 286.02504 252.38721 
L 290.5155 260.977656 
L 281.339342 257.853858 
z
" clip-path="url(#p51ba74fd91)"/>
   </g>
   <g id="line2d_15">
    <path d="M 290.5155 217.417656 
L 290.5155 182.257656 
M 281.5155 182.257656 
L 299.5155 182.257656 
M 290.5155 169.657656 
L 290.5155 134.497656 
" clip-path="url(#p51ba74fd91)" style="fill: none; stroke: #000000; stroke-width: 2; stroke-linecap: round"/>
   </g>
   <g id="line2d_16">
    <path d="M 313.514149 184.085456 
L 304.0155 178.657656 
" clip-path="url(#p51ba74fd91)" style="fill: none; stroke: #000000; stroke-width: 2; stroke-linecap: round"/>
   </g>
   <g id="patch_8">
    <path d="M 314.94303 181.584916 
L 319.7655 187.657656 
L 312.085269 186.585996 
z
" clip-path="url(#p51ba74fd91)"/>
   </g>
   <g id="line2d_17">
    <path d="M 313.514149 175.985456 
L 304.0155 170.557656 
" clip-path="url(#p51ba74fd91)" style="fill: none; stroke: #000000; stroke-width: 2; stroke-linecap: round"/>
   </g>
   <g id="patch_9">
    <path d="M 314.94303 173.484916 
L 319.7655 179.557656 
L 312.085269 178.485996 
z
" clip-path="url(#p51ba74fd91)"/>
   </g>
   <g id="line2d_18">
    <path d="M 290.5155 134.497656 
L 290.5155 98.497656 
L 281.5155 98.497656 
L 281.5155 62.497656 
L 299.5155 62.497656 
L 299.5155 98.497656 
L 290.5155 98.497656 
M 290.5155 62.497656 
L 290.5155 26.497656 
" clip-path="url(#p51ba74fd91)" style="fill: none; stroke: #000000; stroke-width: 2; stroke-linecap: round"/>
   </g>
   <g id="line2d_19">
    <path d="M 290.5155 26.497656 
L 222.9855 26.497656 
L 155.4555 26.497656 
" clip-path="url(#p51ba74fd91)" style="fill: none; stroke: #000000; stroke-width: 2; stroke-linecap: round"/>
   </g>
   <g id="line2d_20">
    <path d="M 290.5155 267.577656 
L 168.9855 267.577656 
L 47.4555 267.577656 
" clip-path="url(#p51ba74fd91)" style="fill: none; stroke: #000000; stroke-width: 2; stroke-linecap: round"/>
   </g>
   <g id="line2d_21">
    <path d="M 47.4555 267.577656 
L 47.4555 201.037656 
L 47.4555 134.497656 
" clip-path="url(#p51ba74fd91)" style="fill: none; stroke: #000000; stroke-width: 2; stroke-linecap: round"/>
   </g>
   <g id="line2d_22">
    <path d="M 22.2555 44.497656 
L 22.2555 105.697656 
" clip-path="url(#p51ba74fd91)" style="fill: none; stroke: #000000; stroke-width: 2; stroke-linecap: round"/>
   </g>
   <g id="patch_10">
    <path d="M 25.8555 105.697656 
L 22.2555 116.497656 
L 18.6555 105.697656 
z
" clip-path="url(#p51ba74fd91)"/>
   </g>
   <g id="text_1">
    <!-- $R_1 = 100 \/ \mathrm{kΩ}$ -->
    <g transform="translate(181.153547 116.810156) rotate(-90) scale(0.125 -0.125)">
     <defs>
      <path id="DejaVuSans-Oblique-52" d="M 1613 4147 
L 1294 2491 
L 2106 2491 
Q 2584 2491 2879 2755 
Q 3175 3019 3175 3444 
Q 3175 3784 2976 3965 
Q 2778 4147 2406 4147 
L 1613 4147 
z
M 2772 2241 
Q 2972 2194 3105 2009 
Q 3238 1825 3413 1275 
L 3809 0 
L 3144 0 
L 2778 1197 
Q 2638 1659 2453 1815 
Q 2269 1972 1888 1972 
L 1191 1972 
L 806 0 
L 172 0 
L 1081 4666 
L 2503 4666 
Q 3150 4666 3495 4373 
Q 3841 4081 3841 3531 
Q 3841 3044 3547 2687 
Q 3253 2331 2772 2241 
z
" transform="scale(0.015625)"/>
      <path id="DejaVuSans-31" d="M 794 531 
L 1825 531 
L 1825 4091 
L 703 3866 
L 703 4441 
L 1819 4666 
L 2450 4666 
L 2450 531 
L 3481 531 
L 3481 0 
L 794 0 
L 794 531 
z
" transform="scale(0.015625)"/>
      <path id="DejaVuSans-3d" d="M 678 2906 
L 4684 2906 
L 4684 2381 
L 678 2381 
L 678 2906 
z
M 678 1631 
L 4684 1631 
L 4684 1100 
L 678 1100 
L 678 1631 
z
" transform="scale(0.015625)"/>
      <path id="DejaVuSans-30" d="M 2034 4250 
Q 1547 4250 1301 3770 
Q 1056 3291 1056 2328 
Q 1056 1369 1301 889 
Q 1547 409 2034 409 
Q 2525 409 2770 889 
Q 3016 1369 3016 2328 
Q 3016 3291 2770 3770 
Q 2525 4250 2034 4250 
z
M 2034 4750 
Q 2819 4750 3233 4129 
Q 3647 3509 3647 2328 
Q 3647 1150 3233 529 
Q 2819 -91 2034 -91 
Q 1250 -91 836 529 
Q 422 1150 422 2328 
Q 422 3509 836 4129 
Q 1250 4750 2034 4750 
z
" transform="scale(0.015625)"/>
      <path id="DejaVuSans-6b" d="M 581 4863 
L 1159 4863 
L 1159 1991 
L 2875 3500 
L 3609 3500 
L 1753 1863 
L 3688 0 
L 2938 0 
L 1159 1709 
L 1159 0 
L 581 0 
L 581 4863 
z
" transform="scale(0.015625)"/>
      <path id="DejaVuSans-3a9" d="M 4647 556 
L 4647 0 
L 2772 0 
L 2772 556 
Q 3325 859 3634 1378 
Q 3944 1897 3944 2528 
Q 3944 3278 3531 3731 
Q 3119 4184 2444 4184 
Q 1769 4184 1355 3729 
Q 941 3275 941 2528 
Q 941 1897 1250 1378 
Q 1563 859 2119 556 
L 2119 0 
L 244 0 
L 244 556 
L 1241 556 
Q 747 991 519 1456 
Q 294 1922 294 2497 
Q 294 3491 894 4106 
Q 1491 4722 2444 4722 
Q 3391 4722 3994 4106 
Q 4594 3494 4594 2528 
Q 4594 1922 4372 1459 
Q 4150 997 3647 556 
L 4647 556 
z
" transform="scale(0.015625)"/>
     </defs>
     <use xlink:href="#DejaVuSans-Oblique-52" transform="translate(0 0.015625)"/>
     <use xlink:href="#DejaVuSans-31" transform="translate(69.482422 -16.390625) scale(0.7)"/>
     <use xlink:href="#DejaVuSans-3d" transform="translate(136.235352 0.015625)"/>
     <use xlink:href="#DejaVuSans-31" transform="translate(239.506836 0.015625)"/>
     <use xlink:href="#DejaVuSans-30" transform="translate(303.129883 0.015625)"/>
     <use xlink:href="#DejaVuSans-30" transform="translate(366.75293 0.015625)"/>
     <use xlink:href="#DejaVuSans-6b" transform="translate(446.611653 0.015625)"/>
     <use xlink:href="#DejaVuSans-3a9" transform="translate(504.521809 0.015625)"/>
    </g>
   </g>
   <g id="text_2">
    <!-- $R_2 = 1 \/ \mathrm{kΩ}$ -->
    <g transform="translate(316.213547 108.872656) rotate(-90) scale(0.125 -0.125)">
     <defs>
      <path id="DejaVuSans-32" d="M 1228 531 
L 3431 531 
L 3431 0 
L 469 0 
L 469 531 
Q 828 903 1448 1529 
Q 2069 2156 2228 2338 
Q 2531 2678 2651 2914 
Q 2772 3150 2772 3378 
Q 2772 3750 2511 3984 
Q 2250 4219 1831 4219 
Q 1534 4219 1204 4116 
Q 875 4013 500 3803 
L 500 4441 
Q 881 4594 1212 4672 
Q 1544 4750 1819 4750 
Q 2544 4750 2975 4387 
Q 3406 4025 3406 3419 
Q 3406 3131 3298 2873 
Q 3191 2616 2906 2266 
Q 2828 2175 2409 1742 
Q 1991 1309 1228 531 
z
" transform="scale(0.015625)"/>
     </defs>
     <use xlink:href="#DejaVuSans-Oblique-52" transform="translate(0 0.015625)"/>
     <use xlink:href="#DejaVuSans-32" transform="translate(69.482422 -16.390625) scale(0.7)"/>
     <use xlink:href="#DejaVuSans-3d" transform="translate(136.235352 0.015625)"/>
     <use xlink:href="#DejaVuSans-31" transform="translate(239.506836 0.015625)"/>
     <use xlink:href="#DejaVuSans-6b" transform="translate(319.365559 0.015625)"/>
     <use xlink:href="#DejaVuSans-3a9" transform="translate(377.275715 0.015625)"/>
    </g>
   </g>
   <g id="text_3">
    <!-- $U_q = 9 \/ \mathrm{V}$ -->
    <g transform="translate(14.7805 104.997656) rotate(-90) scale(0.125 -0.125)">
     <defs>
      <path id="DejaVuSans-Oblique-55" d="M 991 4666 
L 1625 4666 
L 1075 1831 
Q 1041 1641 1027 1517 
Q 1013 1394 1013 1300 
Q 1013 869 1253 645 
Q 1494 422 1959 422 
Q 2563 422 2898 753 
Q 3234 1084 3378 1831 
L 3928 4666 
L 4563 4666 
L 4000 1753 
Q 3816 809 3300 359 
Q 2784 -91 1888 -91 
Q 1188 -91 780 261 
Q 372 613 372 1216 
Q 372 1325 387 1461 
Q 403 1597 434 1753 
L 991 4666 
z
" transform="scale(0.015625)"/>
      <path id="DejaVuSans-Oblique-71" d="M 2669 525 
Q 2438 222 2123 65 
Q 1809 -91 1428 -91 
Q 897 -91 595 267 
Q 294 625 294 1253 
Q 294 1759 480 2231 
Q 666 2703 1013 3078 
Q 1238 3322 1530 3453 
Q 1822 3584 2144 3584 
Q 2531 3584 2781 3431 
Q 3031 3278 3144 2969 
L 3244 3494 
L 3822 3494 
L 2888 -1319 
L 2309 -1319 
L 2669 525 
z
M 891 1338 
Q 891 875 1084 633 
Q 1278 391 1644 391 
Q 2188 391 2572 911 
Q 2956 1431 2956 2175 
Q 2956 2625 2757 2864 
Q 2559 3103 2188 3103 
Q 1916 3103 1684 2976 
Q 1453 2850 1281 2606 
Q 1100 2350 995 2006 
Q 891 1663 891 1338 
z
" transform="scale(0.015625)"/>
      <path id="DejaVuSans-39" d="M 703 97 
L 703 672 
Q 941 559 1184 500 
Q 1428 441 1663 441 
Q 2288 441 2617 861 
Q 2947 1281 2994 2138 
Q 2813 1869 2534 1725 
Q 2256 1581 1919 1581 
Q 1219 1581 811 2004 
Q 403 2428 403 3163 
Q 403 3881 828 4315 
Q 1253 4750 1959 4750 
Q 2769 4750 3195 4129 
Q 3622 3509 3622 2328 
Q 3622 1225 3098 567 
Q 2575 -91 1691 -91 
Q 1453 -91 1209 -44 
Q 966 3 703 97 
z
M 1959 2075 
Q 2384 2075 2632 2365 
Q 2881 2656 2881 3163 
Q 2881 3666 2632 3958 
Q 2384 4250 1959 4250 
Q 1534 4250 1286 3958 
Q 1038 3666 1038 3163 
Q 1038 2656 1286 2365 
Q 1534 2075 1959 2075 
z
" transform="scale(0.015625)"/>
      <path id="DejaVuSans-56" d="M 1831 0 
L 50 4666 
L 709 4666 
L 2188 738 
L 3669 4666 
L 4325 4666 
L 2547 0 
L 1831 0 
z
" transform="scale(0.015625)"/>
     </defs>
     <use xlink:href="#DejaVuSans-Oblique-55" transform="translate(0 0.78125)"/>
     <use xlink:href="#DejaVuSans-Oblique-71" transform="translate(73.193359 -15.625) scale(0.7)"/>
     <use xlink:href="#DejaVuSans-3d" transform="translate(139.84375 0.78125)"/>
     <use xlink:href="#DejaVuSans-39" transform="translate(243.115234 0.78125)"/>
     <use xlink:href="#DejaVuSans-56" transform="translate(322.973958 0.78125)"/>
    </g>
   </g>
   <g id="line2d_23">
    <path d="M 83.4555 26.497656 
L 83.4555 26.497656 
" clip-path="url(#p51ba74fd91)" style="fill: none; stroke: #000000; stroke-width: 2; stroke-linecap: round"/>
   </g>
   <g id="patch_11">
    <path d="M 83.4555 21.097656 
L 94.2555 26.497656 
L 83.4555 31.897656 
z
" clip-path="url(#p51ba74fd91)"/>
   </g>
   <g id="text_4">
    <!-- $I$ -->
    <g transform="translate(86.9805 13.098047) scale(0.125 -0.125)">
     <defs>
      <path id="DejaVuSans-Oblique-49" d="M 1081 4666 
L 1716 4666 
L 806 0 
L 172 0 
L 1081 4666 
z
" transform="scale(0.015625)"/>
     </defs>
     <use xlink:href="#DejaVuSans-Oblique-49" transform="translate(0 0.09375)"/>
    </g>
   </g>
  </g>
 </g>
 <defs>
  <clipPath id="p51ba74fd91">
   <rect x="3.6" y="8.773656" width="331.221" height="271.128"/>
  </clipPath>
 </defs>
</svg>
