<?xml version="1.0" encoding="utf-8" standalone="no"?>
<!DOCTYPE svg PUBLIC "-//W3C//DTD SVG 1.1//EN"
  "http://www.w3.org/Graphics/SVG/1.1/DTD/svg11.dtd">
<svg xmlns:xlink="http://www.w3.org/1999/xlink" width="284.475pt" height="152.182656pt" viewBox="0 0 284.475 152.182656" xmlns="http://www.w3.org/2000/svg" version="1.1">
 <metadata>
  <rdf:RDF xmlns:dc="http://purl.org/dc/elements/1.1/" xmlns:cc="http://creativecommons.org/ns#" xmlns:rdf="http://www.w3.org/1999/02/22-rdf-syntax-ns#">
   <cc:Work>
    <dc:type rdf:resource="http://purl.org/dc/dcmitype/StillImage"/>
    <dc:date>2023-11-15T12:28:00.470041</dc:date>
    <dc:format>image/svg+xml</dc:format>
    <dc:creator>
     <cc:Agent>
      <dc:title>Matplotlib v3.8.1, https://matplotlib.org/</dc:title>
     </cc:Agent>
    </dc:creator>
   </cc:Work>
  </rdf:RDF>
 </metadata>
 <defs>
  <style type="text/css">*{stroke-linejoin: round; stroke-linecap: butt}</style>
 </defs>
 <g id="figure_1">
  <g id="patch_1">
   <path d="M 0 152.182656 
L 284.475 152.182656 
L 284.475 0 
L 0 0 
L 0 152.182656 
z
" style="fill: none"/>
  </g>
  <g id="axes_1">
   <g id="patch_2">
    <path d="M 45.65 103.897656 
C 50.423656 103.897656 55.002438 102.001063 58.377922 98.625578 
C 61.753406 95.250094 63.65 90.671312 63.65 85.897656 
C 63.65 81.124 61.753406 76.545219 58.377922 73.169734 
C 55.002438 69.79425 50.423656 67.897656 45.65 67.897656 
C 40.876344 67.897656 36.297562 69.79425 32.922078 73.169734 
C 29.546594 76.545219 27.65 81.124 27.65 85.897656 
C 27.65 90.671312 29.546594 95.250094 32.922078 98.625578 
C 36.297562 102.001063 40.876344 103.897656 45.65 103.897656 
L 45.65 103.897656 
z
" clip-path="url(#p37a1dcceeb)" style="fill: none; stroke: #000000; stroke-width: 2; stroke-linejoin: miter"/>
   </g>
   <g id="line2d_1">
    <path d="M 45.65 139.897656 
L 45.65 103.897656 
L 45.65 103.897656 
M 45.65 67.897656 
L 45.65 67.897656 
L 45.65 31.897656 
" clip-path="url(#p37a1dcceeb)" style="fill: none; stroke: #000000; stroke-width: 2; stroke-linecap: round"/>
   </g>
   <g id="line2d_2">
    <path d="M 49.25 94.897656 
L 42.05 94.897656 
" clip-path="url(#p37a1dcceeb)" style="fill: none; stroke: #000000; stroke-width: 2; stroke-linecap: round"/>
   </g>
   <g id="line2d_3">
    <path d="M 45.65 80.497656 
L 45.65 73.297656 
" clip-path="url(#p37a1dcceeb)" style="fill: none; stroke: #000000; stroke-width: 2; stroke-linecap: round"/>
   </g>
   <g id="line2d_4">
    <path d="M 49.25 76.897656 
L 42.05 76.897656 
" clip-path="url(#p37a1dcceeb)" style="fill: none; stroke: #000000; stroke-width: 2; stroke-linecap: round"/>
   </g>
   <g id="line2d_5">
    <path d="M 45.65 31.897656 
L 117.65 31.897656 
L 117.65 22.897656 
L 153.65 22.897656 
L 153.65 40.897656 
L 117.65 40.897656 
L 117.65 31.897656 
M 153.65 31.897656 
L 225.65 31.897656 
" clip-path="url(#p37a1dcceeb)" style="fill: none; stroke: #000000; stroke-width: 2; stroke-linecap: round"/>
   </g>
   <g id="line2d_6">
    <path d="M 225.65 31.897656 
L 225.65 82.657656 
M 234.65 82.657656 
L 216.65 82.657656 
M 234.65 89.137656 
L 216.65 89.137656 
M 225.65 89.137656 
L 225.65 139.897656 
" clip-path="url(#p37a1dcceeb)" style="fill: none; stroke: #000000; stroke-width: 2; stroke-linecap: round"/>
   </g>
   <g id="line2d_7">
    <path d="M 225.65 139.897656 
L 135.65 139.897656 
L 45.65 139.897656 
" clip-path="url(#p37a1dcceeb)" style="fill: none; stroke: #000000; stroke-width: 2; stroke-linecap: round"/>
   </g>
   <g id="line2d_8">
    <path d="M 225.65 31.897656 
L 243.65 31.897656 
L 261.65 31.897656 
" clip-path="url(#p37a1dcceeb)" style="fill: none; stroke: #000000; stroke-width: 2; stroke-linecap: round"/>
   </g>
   <g id="line2d_9">
    <path d="M 225.65 139.897656 
L 243.65 139.897656 
L 261.65 139.897656 
" clip-path="url(#p37a1dcceeb)" style="fill: none; stroke: #000000; stroke-width: 2; stroke-linecap: round"/>
   </g>
   <g id="line2d_10">
    <path d="M 20.45 49.897656 
L 20.45 111.097656 
" clip-path="url(#p37a1dcceeb)" style="fill: none; stroke: #000000; stroke-width: 2; stroke-linecap: round"/>
   </g>
   <g id="patch_3">
    <path d="M 24.05 111.097656 
L 20.45 121.897656 
L 16.85 111.097656 
z
" clip-path="url(#p37a1dcceeb)"/>
   </g>
   <g id="line2d_11">
    <path d="M 99.65 49.897656 
L 160.85 49.897656 
" clip-path="url(#p37a1dcceeb)" style="fill: none; stroke: #000000; stroke-width: 2; stroke-linecap: round"/>
   </g>
   <g id="patch_4">
    <path d="M 160.85 46.297656 
L 171.65 49.897656 
L 160.85 53.497656 
z
" clip-path="url(#p37a1dcceeb)"/>
   </g>
   <g id="line2d_12">
    <path d="M 261.65 49.897656 
L 261.65 111.097656 
" clip-path="url(#p37a1dcceeb)" style="fill: none; stroke: #000000; stroke-width: 2; stroke-linecap: round"/>
   </g>
   <g id="patch_5">
    <path d="M 265.25 111.097656 
L 261.65 121.897656 
L 258.05 111.097656 
z
" clip-path="url(#p37a1dcceeb)"/>
   </g>
   <g id="text_1">
    <!-- $R = 1 \/ \mathrm{kΩ}$ -->
    <g transform="translate(110.2125 13.098047) scale(0.125 -0.125)">
     <defs>
      <path id="DejaVuSans-Oblique-52" d="M 1613 4147 
L 1294 2491 
L 2106 2491 
Q 2584 2491 2879 2755 
Q 3175 3019 3175 3444 
Q 3175 3784 2976 3965 
Q 2778 4147 2406 4147 
L 1613 4147 
z
M 2772 2241 
Q 2972 2194 3105 2009 
Q 3238 1825 3413 1275 
L 3809 0 
L 3144 0 
L 2778 1197 
Q 2638 1659 2453 1815 
Q 2269 1972 1888 1972 
L 1191 1972 
L 806 0 
L 172 0 
L 1081 4666 
L 2503 4666 
Q 3150 4666 3495 4373 
Q 3841 4081 3841 3531 
Q 3841 3044 3547 2687 
Q 3253 2331 2772 2241 
z
" transform="scale(0.015625)"/>
      <path id="DejaVuSans-3d" d="M 678 2906 
L 4684 2906 
L 4684 2381 
L 678 2381 
L 678 2906 
z
M 678 1631 
L 4684 1631 
L 4684 1100 
L 678 1100 
L 678 1631 
z
" transform="scale(0.015625)"/>
      <path id="DejaVuSans-31" d="M 794 531 
L 1825 531 
L 1825 4091 
L 703 3866 
L 703 4441 
L 1819 4666 
L 2450 4666 
L 2450 531 
L 3481 531 
L 3481 0 
L 794 0 
L 794 531 
z
" transform="scale(0.015625)"/>
      <path id="DejaVuSans-6b" d="M 581 4863 
L 1159 4863 
L 1159 1991 
L 2875 3500 
L 3609 3500 
L 1753 1863 
L 3688 0 
L 2938 0 
L 1159 1709 
L 1159 0 
L 581 0 
L 581 4863 
z
" transform="scale(0.015625)"/>
      <path id="DejaVuSans-3a9" d="M 4647 556 
L 4647 0 
L 2772 0 
L 2772 556 
Q 3325 859 3634 1378 
Q 3944 1897 3944 2528 
Q 3944 3278 3531 3731 
Q 3119 4184 2444 4184 
Q 1769 4184 1355 3729 
Q 941 3275 941 2528 
Q 941 1897 1250 1378 
Q 1563 859 2119 556 
L 2119 0 
L 244 0 
L 244 556 
L 1241 556 
Q 747 991 519 1456 
Q 294 1922 294 2497 
Q 294 3491 894 4106 
Q 1491 4722 2444 4722 
Q 3391 4722 3994 4106 
Q 4594 3494 4594 2528 
Q 4594 1922 4372 1459 
Q 4150 997 3647 556 
L 4647 556 
z
" transform="scale(0.015625)"/>
     </defs>
     <use xlink:href="#DejaVuSans-Oblique-52" transform="translate(0 0.015625)"/>
     <use xlink:href="#DejaVuSans-3d" transform="translate(88.964844 0.015625)"/>
     <use xlink:href="#DejaVuSans-31" transform="translate(192.236328 0.015625)"/>
     <use xlink:href="#DejaVuSans-6b" transform="translate(272.095051 0.015625)"/>
     <use xlink:href="#DejaVuSans-3a9" transform="translate(330.005208 0.015625)"/>
    </g>
   </g>
   <g id="text_2">
    <!-- $C = 1 \/ \mathrm{µF}$ -->
    <g transform="translate(206.825 110.522656) rotate(-90) scale(0.125 -0.125)">
     <defs>
      <path id="DejaVuSans-Oblique-43" d="M 4447 4306 
L 4319 3641 
Q 4019 3944 3683 4091 
Q 3347 4238 2956 4238 
Q 2422 4238 2017 3981 
Q 1613 3725 1319 3200 
Q 1131 2863 1032 2486 
Q 934 2109 934 1728 
Q 934 1091 1264 756 
Q 1594 422 2222 422 
Q 2656 422 3056 561 
Q 3456 700 3834 978 
L 3688 231 
Q 3316 72 2936 -9 
Q 2556 -91 2175 -91 
Q 1278 -91 773 396 
Q 269 884 269 1753 
Q 269 2309 461 2846 
Q 653 3384 1013 3828 
Q 1394 4300 1883 4525 
Q 2372 4750 3022 4750 
Q 3422 4750 3780 4639 
Q 4138 4528 4447 4306 
z
" transform="scale(0.015625)"/>
      <path id="DejaVuSans-b5" d="M 544 -1331 
L 544 3500 
L 1119 3500 
L 1119 1325 
Q 1119 872 1334 640 
Q 1550 409 1972 409 
Q 2434 409 2667 671 
Q 2900 934 2900 1459 
L 2900 3500 
L 3475 3500 
L 3475 806 
Q 3475 619 3529 530 
Q 3584 441 3700 441 
Q 3728 441 3778 458 
Q 3828 475 3916 513 
L 3916 50 
Q 3788 -22 3673 -56 
Q 3559 -91 3450 -91 
Q 3234 -91 3106 31 
Q 2978 153 2931 403 
Q 2775 156 2548 32 
Q 2322 -91 2016 -91 
Q 1697 -91 1473 31 
Q 1250 153 1119 397 
L 1119 -1331 
L 544 -1331 
z
" transform="scale(0.015625)"/>
      <path id="DejaVuSans-46" d="M 628 4666 
L 3309 4666 
L 3309 4134 
L 1259 4134 
L 1259 2759 
L 3109 2759 
L 3109 2228 
L 1259 2228 
L 1259 0 
L 628 0 
L 628 4666 
z
" transform="scale(0.015625)"/>
     </defs>
     <use xlink:href="#DejaVuSans-Oblique-43" transform="translate(0 0.78125)"/>
     <use xlink:href="#DejaVuSans-3d" transform="translate(89.306641 0.78125)"/>
     <use xlink:href="#DejaVuSans-31" transform="translate(192.578125 0.78125)"/>
     <use xlink:href="#DejaVuSans-b5" transform="translate(272.436848 0.78125)"/>
     <use xlink:href="#DejaVuSans-46" transform="translate(336.059895 0.78125)"/>
    </g>
   </g>
   <g id="text_3">
    <!-- $U_{pp} = 2 \/ \mathrm{V}$ -->
    <g transform="translate(12.975 113.147656) rotate(-90) scale(0.125 -0.125)">
     <defs>
      <path id="DejaVuSans-Oblique-55" d="M 991 4666 
L 1625 4666 
L 1075 1831 
Q 1041 1641 1027 1517 
Q 1013 1394 1013 1300 
Q 1013 869 1253 645 
Q 1494 422 1959 422 
Q 2563 422 2898 753 
Q 3234 1084 3378 1831 
L 3928 4666 
L 4563 4666 
L 4000 1753 
Q 3816 809 3300 359 
Q 2784 -91 1888 -91 
Q 1188 -91 780 261 
Q 372 613 372 1216 
Q 372 1325 387 1461 
Q 403 1597 434 1753 
L 991 4666 
z
" transform="scale(0.015625)"/>
      <path id="DejaVuSans-Oblique-70" d="M 3175 2156 
Q 3175 2616 2975 2859 
Q 2775 3103 2400 3103 
Q 2144 3103 1911 2972 
Q 1678 2841 1497 2591 
Q 1319 2344 1212 1994 
Q 1106 1644 1106 1300 
Q 1106 863 1306 627 
Q 1506 391 1875 391 
Q 2147 391 2380 519 
Q 2613 647 2778 891 
Q 2956 1147 3065 1494 
Q 3175 1841 3175 2156 
z
M 1394 2969 
Q 1625 3272 1939 3428 
Q 2253 3584 2638 3584 
Q 3175 3584 3472 3232 
Q 3769 2881 3769 2247 
Q 3769 1728 3584 1258 
Q 3400 788 3053 416 
Q 2822 169 2531 39 
Q 2241 -91 1919 -91 
Q 1547 -91 1294 64 
Q 1041 219 916 525 
L 556 -1331 
L -19 -1331 
L 922 3500 
L 1497 3500 
L 1394 2969 
z
" transform="scale(0.015625)"/>
      <path id="DejaVuSans-32" d="M 1228 531 
L 3431 531 
L 3431 0 
L 469 0 
L 469 531 
Q 828 903 1448 1529 
Q 2069 2156 2228 2338 
Q 2531 2678 2651 2914 
Q 2772 3150 2772 3378 
Q 2772 3750 2511 3984 
Q 2250 4219 1831 4219 
Q 1534 4219 1204 4116 
Q 875 4013 500 3803 
L 500 4441 
Q 881 4594 1212 4672 
Q 1544 4750 1819 4750 
Q 2544 4750 2975 4387 
Q 3406 4025 3406 3419 
Q 3406 3131 3298 2873 
Q 3191 2616 2906 2266 
Q 2828 2175 2409 1742 
Q 1991 1309 1228 531 
z
" transform="scale(0.015625)"/>
      <path id="DejaVuSans-56" d="M 1831 0 
L 50 4666 
L 709 4666 
L 2188 738 
L 3669 4666 
L 4325 4666 
L 2547 0 
L 1831 0 
z
" transform="scale(0.015625)"/>
     </defs>
     <use xlink:href="#DejaVuSans-Oblique-55" transform="translate(0 0.78125)"/>
     <use xlink:href="#DejaVuSans-Oblique-70" transform="translate(73.193359 -15.625) scale(0.7)"/>
     <use xlink:href="#DejaVuSans-Oblique-70" transform="translate(117.626953 -15.625) scale(0.7)"/>
     <use xlink:href="#DejaVuSans-3d" transform="translate(184.277344 0.78125)"/>
     <use xlink:href="#DejaVuSans-32" transform="translate(287.548828 0.78125)"/>
     <use xlink:href="#DejaVuSans-56" transform="translate(367.407551 0.78125)"/>
    </g>
   </g>
   <g id="text_4">
    <!-- $U_R$ -->
    <g transform="translate(127.8375 62.995703) scale(0.125 -0.125)">
     <use xlink:href="#DejaVuSans-Oblique-55" transform="translate(0 0.09375)"/>
     <use xlink:href="#DejaVuSans-Oblique-52" transform="translate(73.193359 -16.3125) scale(0.7)"/>
    </g>
   </g>
   <g id="text_5">
    <!-- $U_C$ -->
    <g transform="translate(265.25 89.346875) scale(0.125 -0.125)">
     <use xlink:href="#DejaVuSans-Oblique-55" transform="translate(0 0.09375)"/>
     <use xlink:href="#DejaVuSans-Oblique-43" transform="translate(73.193359 -16.3125) scale(0.7)"/>
    </g>
   </g>
   <g id="patch_6">
    <path d="M 261.65 34.597656 
C 262.366048 34.597656 263.052866 34.313167 263.559188 33.806845 
C 264.065511 33.300522 264.35 32.613705 264.35 31.897656 
C 264.35 31.181608 264.065511 30.494791 263.559188 29.988468 
C 263.052866 29.482145 262.366048 29.197656 261.65 29.197656 
C 260.933952 29.197656 260.247134 29.482145 259.740812 29.988468 
C 259.234489 30.494791 258.95 31.181608 258.95 31.897656 
C 258.95 32.613705 259.234489 33.300522 259.740812 33.806845 
C 260.247134 34.313167 260.933952 34.597656 261.65 34.597656 
z
" clip-path="url(#p37a1dcceeb)" style="fill: #ffffff; stroke: #000000; stroke-width: 2; stroke-linejoin: miter"/>
   </g>
   <g id="patch_7">
    <path d="M 261.65 142.597656 
C 262.366048 142.597656 263.052866 142.313167 263.559188 141.806845 
C 264.065511 141.300522 264.35 140.613705 264.35 139.897656 
C 264.35 139.181608 264.065511 138.494791 263.559188 137.988468 
C 263.052866 137.482145 262.366048 137.197656 261.65 137.197656 
C 260.933952 137.197656 260.247134 137.482145 259.740812 137.988468 
C 259.234489 138.494791 258.95 139.181608 258.95 139.897656 
C 258.95 140.613705 259.234489 141.300522 259.740812 141.806845 
C 260.247134 142.313167 260.933952 142.597656 261.65 142.597656 
z
" clip-path="url(#p37a1dcceeb)" style="fill: #ffffff; stroke: #000000; stroke-width: 2; stroke-linejoin: miter"/>
   </g>
   <g id="line2d_13">
    <path d="M 88.85 31.897656 
L 88.85 31.897656 
" clip-path="url(#p37a1dcceeb)" style="fill: none; stroke: #000000; stroke-width: 2; stroke-linecap: round"/>
   </g>
   <g id="patch_8">
    <path d="M 88.85 26.497656 
L 99.65 31.897656 
L 88.85 37.297656 
z
" clip-path="url(#p37a1dcceeb)"/>
   </g>
   <g id="text_6">
    <!-- $I$ -->
    <g transform="translate(92.375 18.498047) scale(0.125 -0.125)">
     <defs>
      <path id="DejaVuSans-Oblique-49" d="M 1081 4666 
L 1716 4666 
L 806 0 
L 172 0 
L 1081 4666 
z
" transform="scale(0.015625)"/>
     </defs>
     <use xlink:href="#DejaVuSans-Oblique-49" transform="translate(0 0.09375)"/>
    </g>
   </g>
  </g>
 </g>
 <defs>
  <clipPath id="p37a1dcceeb">
   <rect x="4.43" y="16.912656" width="273.24" height="131.67"/>
  </clipPath>
 </defs>
</svg>
